<?xml version="1.0" encoding="UTF-8" standalone="no"?><svg xmlns="http://www.w3.org/2000/svg" xmlns:xlink="http://www.w3.org/1999/xlink" contentStyleType="text/css" height="550px" preserveAspectRatio="none" style="width:580px;height:550px;background:#FFFFFF;" version="1.1" viewBox="0 0 580 550" width="580px" zoomAndPan="magnify"><defs/><g><rect fill="none" height="107.1094" style="stroke:#000000;stroke-width:1.5;" width="378" x="67" y="345.8398"/><line style="stroke:#181818;stroke-width:0.5;stroke-dasharray:5.0,5.0;" x1="36" x2="36" y1="81.4883" y2="469.9492"/><line style="stroke:#181818;stroke-width:0.5;stroke-dasharray:5.0,5.0;" x1="115" x2="115" y1="81.4883" y2="469.9492"/><line style="stroke:#181818;stroke-width:0.5;stroke-dasharray:5.0,5.0;" x1="274" x2="274" y1="160.043" y2="469.9492"/><line style="stroke:#181818;stroke-width:0.5;stroke-dasharray:5.0,5.0;" x1="390" x2="390" y1="402.3945" y2="469.9492"/><line style="stroke:#181818;stroke-width:0.5;stroke-dasharray:5.0,5.0;" x1="476" x2="476" y1="81.4883" y2="469.9492"/><line style="stroke:#181818;stroke-width:0.5;stroke-dasharray:5.0,5.0;" x1="548" x2="548" y1="81.4883" y2="469.9492"/><text fill="#000000" font-family="sans-serif" font-size="14" lengthAdjust="spacing" textLength="56" x="5" y="78.5352">ユーザー</text><ellipse cx="36" cy="13.5" fill="#E2E2F0" rx="8" ry="8" style="stroke:#181818;stroke-width:0.5;"/><path d="M36,21.5 L36,48.5 M23,29.5 L49,29.5 M36,48.5 L23,63.5 M36,48.5 L49,63.5 " fill="none" style="stroke:#181818;stroke-width:0.5;"/><text fill="#000000" font-family="sans-serif" font-size="14" lengthAdjust="spacing" textLength="56" x="5" y="482.4844">ユーザー</text><ellipse cx="36" cy="493.9375" fill="#E2E2F0" rx="8" ry="8" style="stroke:#181818;stroke-width:0.5;"/><path d="M36,501.9375 L36,528.9375 M23,509.9375 L49,509.9375 M36,528.9375 L23,543.9375 M36,528.9375 L49,543.9375 " fill="none" style="stroke:#181818;stroke-width:0.5;"/><text fill="#000000" font-family="sans-serif" font-size="14" lengthAdjust="spacing" textLength="70" x="77" y="78.5352">ホーム画面</text><path d="M94.5,37 L94.5,61 M94.5,49 L111.5,49 " fill="none" style="stroke:#181818;stroke-width:0.5;"/><ellipse cx="123.5" cy="49" fill="#E2E2F0" rx="12" ry="12" style="stroke:#181818;stroke-width:0.5;"/><text fill="#000000" font-family="sans-serif" font-size="14" lengthAdjust="spacing" textLength="70" x="77" y="482.4844">ホーム画面</text><path d="M94.5,489.4375 L94.5,513.4375 M94.5,501.4375 L111.5,501.4375 " fill="none" style="stroke:#181818;stroke-width:0.5;"/><ellipse cx="123.5" cy="501.4375" fill="#E2E2F0" rx="12" ry="12" style="stroke:#181818;stroke-width:0.5;"/><text fill="#000000" font-family="sans-serif" font-size="14" lengthAdjust="spacing" textLength="70" x="236" y="482.4844">検索ビュー</text><path d="M253.5,489.4375 L253.5,513.4375 M253.5,501.4375 L270.5,501.4375 " fill="none" style="stroke:#181818;stroke-width:0.5;"/><ellipse cx="282.5" cy="501.4375" fill="#E2E2F0" rx="12" ry="12" style="stroke:#181818;stroke-width:0.5;"/><text fill="#000000" font-family="sans-serif" font-size="14" lengthAdjust="spacing" textLength="84" x="345" y="482.4844">検索結果画面</text><path d="M369.5,489.4375 L369.5,513.4375 M369.5,501.4375 L386.5,501.4375 " fill="none" style="stroke:#181818;stroke-width:0.5;"/><ellipse cx="398.5" cy="501.4375" fill="#E2E2F0" rx="12" ry="12" style="stroke:#181818;stroke-width:0.5;"/><text fill="#000000" font-family="sans-serif" font-size="14" lengthAdjust="spacing" textLength="56" x="445" y="78.5352">記事検索</text><ellipse cx="476" cy="49" fill="#E2E2F0" rx="12" ry="12" style="stroke:#181818;stroke-width:0.5;"/><line style="stroke:#181818;stroke-width:0.5;" x1="464" x2="488" y1="63" y2="63"/><text fill="#000000" font-family="sans-serif" font-size="14" lengthAdjust="spacing" textLength="56" x="445" y="482.4844">記事検索</text><ellipse cx="476" cy="501.4375" fill="#E2E2F0" rx="12" ry="12" style="stroke:#181818;stroke-width:0.5;"/><line style="stroke:#181818;stroke-width:0.5;" x1="464" x2="488" y1="515.4375" y2="515.4375"/><text fill="#000000" font-family="sans-serif" font-size="14" lengthAdjust="spacing" textLength="56" x="517" y="78.5352">記事一覧</text><ellipse cx="548" cy="49" fill="#E2E2F0" rx="12" ry="12" style="stroke:#181818;stroke-width:0.5;"/><line style="stroke:#181818;stroke-width:0.5;" x1="536" x2="560" y1="63" y2="63"/><text fill="#000000" font-family="sans-serif" font-size="14" lengthAdjust="spacing" textLength="56" x="517" y="482.4844">記事一覧</text><ellipse cx="548" cy="501.4375" fill="#E2E2F0" rx="12" ry="12" style="stroke:#181818;stroke-width:0.5;"/><line style="stroke:#181818;stroke-width:0.5;" x1="536" x2="560" y1="515.4375" y2="515.4375"/><polygon fill="#181818" points="103,108.7988,113,112.7988,103,116.7988,107,112.7988" style="stroke:#181818;stroke-width:1.0;"/><line style="stroke:#181818;stroke-width:1.0;" x1="36" x2="109" y1="112.7988" y2="112.7988"/><text fill="#000000" font-family="sans-serif" font-size="13" lengthAdjust="spacing" textLength="42" x="43" y="108.0566">access</text><polygon fill="#181818" points="224,138.1094,234,142.1094,224,146.1094,228,142.1094" style="stroke:#181818;stroke-width:1.0;"/><line style="stroke:#181818;stroke-width:1.0;" x1="115" x2="230" y1="142.1094" y2="142.1094"/><text fill="#000000" font-family="sans-serif" font-size="13" lengthAdjust="spacing" textLength="45" x="122" y="137.3672">display</text><text fill="#000000" font-family="sans-serif" font-size="14" lengthAdjust="spacing" textLength="70" x="236" y="166.334">検索ビュー</text><path d="M253.5,124.7988 L253.5,148.7988 M253.5,136.7988 L270.5,136.7988 " fill="none" style="stroke:#181818;stroke-width:0.5;"/><ellipse cx="282.5" cy="136.7988" fill="#E2E2F0" rx="12" ry="12" style="stroke:#181818;stroke-width:0.5;"/><polygon fill="#181818" points="262,196.5977,272,200.5977,262,204.5977,266,200.5977" style="stroke:#181818;stroke-width:1.0;"/><line style="stroke:#181818;stroke-width:1.0;" x1="36" x2="268" y1="200.5977" y2="200.5977"/><text fill="#000000" font-family="sans-serif" font-size="13" lengthAdjust="spacing" textLength="90" x="43" y="195.8555">input keyword</text><line style="stroke:#181818;stroke-width:1.0;" x1="274" x2="316" y1="229.9082" y2="229.9082"/><line style="stroke:#181818;stroke-width:1.0;" x1="316" x2="316" y1="229.9082" y2="242.9082"/><line style="stroke:#181818;stroke-width:1.0;" x1="275" x2="316" y1="242.9082" y2="242.9082"/><polygon fill="#181818" points="285,238.9082,275,242.9082,285,246.9082,281,242.9082" style="stroke:#181818;stroke-width:1.0;"/><text fill="#000000" font-family="sans-serif" font-size="13" lengthAdjust="spacing" textLength="102" x="281" y="225.166">validateKeyword</text><polygon fill="#181818" points="464,268.2188,474,272.2188,464,276.2188,468,272.2188" style="stroke:#181818;stroke-width:1.0;"/><line style="stroke:#181818;stroke-width:1.0;" x1="274" x2="470" y1="272.2188" y2="272.2188"/><text fill="#000000" font-family="sans-serif" font-size="13" lengthAdjust="spacing" textLength="102" x="281" y="267.4766">search(keyword)</text><polygon fill="#181818" points="536,297.5293,546,301.5293,536,305.5293,540,301.5293" style="stroke:#181818;stroke-width:1.0;"/><line style="stroke:#181818;stroke-width:1.0;" x1="476" x2="542" y1="301.5293" y2="301.5293"/><text fill="#000000" font-family="sans-serif" font-size="13" lengthAdjust="spacing" textLength="25" x="483" y="296.7871">new</text><polygon fill="#181818" points="285,326.8398,275,330.8398,285,334.8398,281,330.8398" style="stroke:#181818;stroke-width:1.0;"/><line style="stroke:#181818;stroke-width:1.0;" x1="279" x2="475" y1="330.8398" y2="330.8398"/><text fill="#000000" font-family="sans-serif" font-size="13" lengthAdjust="spacing" textLength="52" x="291" y="326.0977">記事一覧</text><path d="M67,345.8398 L129,345.8398 L129,353.1504 L119,363.1504 L67,363.1504 L67,345.8398 " fill="#EEEEEE" style="stroke:#000000;stroke-width:1.5;"/><rect fill="none" height="107.1094" style="stroke:#000000;stroke-width:1.5;" width="378" x="67" y="345.8398"/><text fill="#000000" font-family="sans-serif" font-size="13" font-weight="bold" lengthAdjust="spacing" textLength="17" x="82" y="359.4082">alt</text><text fill="#000000" font-family="sans-serif" font-size="11" font-weight="bold" lengthAdjust="spacing" textLength="88" x="144" y="358.4746">[exists 記事一覧]</text><polygon fill="#181818" points="333,380.4609,343,384.4609,333,388.4609,337,384.4609" style="stroke:#181818;stroke-width:1.0;"/><line style="stroke:#181818;stroke-width:1.0;" x1="274" x2="339" y1="384.4609" y2="384.4609"/><text fill="#000000" font-family="sans-serif" font-size="13" lengthAdjust="spacing" textLength="45" x="281" y="379.7188">display</text><text fill="#000000" font-family="sans-serif" font-size="14" lengthAdjust="spacing" textLength="84" x="345" y="408.6855">検索結果画面</text><path d="M369.5,367.1504 L369.5,391.1504 M369.5,379.1504 L386.5,379.1504 " fill="none" style="stroke:#181818;stroke-width:0.5;"/><ellipse cx="398.5" cy="379.1504" fill="#E2E2F0" rx="12" ry="12" style="stroke:#181818;stroke-width:0.5;"/><line style="stroke:#000000;stroke-width:1.0;stroke-dasharray:2.0,2.0;" x1="67" x2="445" y1="422.6387" y2="422.6387"/><polygon fill="#181818" points="126,440.9492,116,444.9492,126,448.9492,122,444.9492" style="stroke:#181818;stroke-width:1.0;"/><line style="stroke:#181818;stroke-width:1.0;" x1="120" x2="273" y1="444.9492" y2="444.9492"/><text fill="#000000" font-family="sans-serif" font-size="13" lengthAdjust="spacing" textLength="135" x="132" y="440.207">display with message</text><!--MD5=[75be440112be4af4c0ce56cac64cc911]
@startuml
/' define perticipants '/
actor ユーザー
boundary ホーム画面
boundary 検索ビュー
boundary 検索結果画面
entity 記事検索
entity 記事一覧

/' messages '/
ユーザー -> ホーム画面 : access
create 検索ビュー
ホーム画面 -> 検索ビュー : display

ユーザー -> 検索ビュー : input keyword

検索ビュー -> 検索ビュー : validateKeyword
検索ビュー -> 記事検索 : search(keyword)
記事検索 -> 記事一覧 : new
記事検索 -> 検索ビュー : 記事一覧

create 検索結果画面

alt exists 記事一覧
  検索ビュー -> 検索結果画面 : display
else
  検索ビュー -> ホーム画面 : display with message
end
@enduml

@startuml
actor ユーザー
boundary ホーム画面
boundary 検索ビュー
boundary 検索結果画面
entity 記事検索
entity 記事一覧

ユーザー -> ホーム画面 : access
create 検索ビュー
ホーム画面 -> 検索ビュー : display

ユーザー -> 検索ビュー : input keyword

検索ビュー -> 検索ビュー : validateKeyword
検索ビュー -> 記事検索 : search(keyword)
記事検索 -> 記事一覧 : new
記事検索 -> 検索ビュー : 記事一覧

create 検索結果画面

alt exists 記事一覧
  検索ビュー -> 検索結果画面 : display
else
  検索ビュー -> ホーム画面 : display with message
end
@enduml

PlantUML version 1.2022.7(Tue Aug 23 02:01:30 JST 2022)
(GPL source distribution)
Java Runtime: OpenJDK Runtime Environment
JVM: OpenJDK 64-Bit Server VM
Default Encoding: UTF-8
Language: ja
Country: JP
--></g></svg>